<mxfile host="app.diagrams.net" modified="2022-11-02T20:09:00.283Z" agent="5.0 (X11)" etag="6GNy_DazZ78xhwmO0wKb" version="20.5.1" type="github">
  <diagram name="Page-1" id="c9db0220-8083-56f3-ca83-edcdcd058819">
    <mxGraphModel dx="-371" dy="443" grid="1" gridSize="10" guides="1" tooltips="1" connect="1" arrows="1" fold="1" page="1" pageScale="1.5" pageWidth="826" pageHeight="1169" background="#FFFFFF" math="0" shadow="0">
      <root>
        <mxCell id="0" style=";html=1;" />
        <mxCell id="1" style=";html=1;" parent="0" />
        <mxCell id="SMOa5pvOTAPaj5bFfzsM-9" value="Latin Dream" style="text;strokeColor=none;fillColor=#FF0080;html=1;fontSize=24;fontStyle=1;verticalAlign=middle;align=center;" vertex="1" parent="1">
          <mxGeometry x="1270" y="1270" width="800" height="110" as="geometry" />
        </mxCell>
        <mxCell id="SMOa5pvOTAPaj5bFfzsM-24" value="&lt;font color=&quot;#FFFFFF&quot;&gt;&lt;span style=&quot;background-color: rgb(255, 0, 128);&quot;&gt;Inicio&lt;/span&gt;&lt;/font&gt;" style="html=1;shadow=0;dashed=0;fillColor=#FF0080;strokeColor=#A50040;fontSize=16;fontColor=#ffffff;align=left;spacing=15;labelBackgroundColor=#000000;" vertex="1" parent="1">
          <mxGeometry x="1270" y="1380" width="800" height="203" as="geometry" />
        </mxCell>
        <mxCell id="SMOa5pvOTAPaj5bFfzsM-25" value="Home" style="fillColor=none;strokeColor=none;fontSize=14;fontColor=#ffffff;align=center;labelBackgroundColor=none;" vertex="1" parent="SMOa5pvOTAPaj5bFfzsM-24">
          <mxGeometry width="70" height="40" relative="1" as="geometry">
            <mxPoint x="410" y="53" as="offset" />
          </mxGeometry>
        </mxCell>
        <mxCell id="SMOa5pvOTAPaj5bFfzsM-26" value="Features" style="fillColor=none;strokeColor=none;fontSize=14;fontColor=#79BFFD;align=center;labelBackgroundColor=none;" vertex="1" parent="SMOa5pvOTAPaj5bFfzsM-24">
          <mxGeometry width="70" height="40" relative="1" as="geometry">
            <mxPoint x="480" y="53" as="offset" />
          </mxGeometry>
        </mxCell>
        <mxCell id="SMOa5pvOTAPaj5bFfzsM-27" value="Pricing" style="fillColor=none;strokeColor=none;fontSize=14;fontColor=#79BFFD;align=center;spacingRight=0;labelBackgroundColor=none;" vertex="1" parent="SMOa5pvOTAPaj5bFfzsM-24">
          <mxGeometry width="80" height="40" relative="1" as="geometry">
            <mxPoint x="250" y="50" as="offset" />
          </mxGeometry>
        </mxCell>
        <mxCell id="SMOa5pvOTAPaj5bFfzsM-28" value="About" style="fillColor=none;strokeColor=none;fontSize=14;fontColor=#79BFFD;align=center;labelBackgroundColor=none;" vertex="1" parent="SMOa5pvOTAPaj5bFfzsM-24">
          <mxGeometry width="80" height="40" relative="1" as="geometry">
            <mxPoint x="330" y="53" as="offset" />
          </mxGeometry>
        </mxCell>
        <mxCell id="SMOa5pvOTAPaj5bFfzsM-29" value="&lt;span style=&quot;background-color: rgb(255, 0, 128);&quot;&gt;Search&lt;/span&gt;" style="html=1;shadow=0;dashed=0;shape=mxgraph.bootstrap.rrect;rSize=5;fontSize=14;fontColor=#ffffff;strokeColor=#ffffff;fillColor=none;labelBackgroundColor=#000000;" vertex="1" parent="SMOa5pvOTAPaj5bFfzsM-24">
          <mxGeometry x="1" width="70" height="40" relative="1" as="geometry">
            <mxPoint x="-70" y="53" as="offset" />
          </mxGeometry>
        </mxCell>
        <mxCell id="SMOa5pvOTAPaj5bFfzsM-30" value="&lt;span style=&quot;background-color: rgb(255, 255, 255);&quot;&gt;Search&lt;/span&gt;" style="html=1;shadow=0;dashed=0;shape=mxgraph.bootstrap.rrect;rSize=5;fontSize=14;fontColor=#6C767D;strokeColor=#CED4DA;fillColor=#ffffff;align=left;spacing=10;labelBackgroundColor=#000000;" vertex="1" parent="SMOa5pvOTAPaj5bFfzsM-24">
          <mxGeometry x="1" width="180" height="40" relative="1" as="geometry">
            <mxPoint x="-240" y="53" as="offset" />
          </mxGeometry>
        </mxCell>
        <mxCell id="SMOa5pvOTAPaj5bFfzsM-33" value="Dropdown button" style="html=1;shadow=0;dashed=0;shape=mxgraph.bootstrap.rrect;rSize=5;strokeColor=none;strokeWidth=1;fillColor=#FF0080;fontColor=#ffffff;whiteSpace=wrap;align=left;verticalAlign=middle;fontStyle=0;fontSize=14;spacingLeft=10;labelBackgroundColor=#FF0080;" vertex="1" parent="SMOa5pvOTAPaj5bFfzsM-24">
          <mxGeometry x="65" y="53" width="140" height="40" as="geometry" />
        </mxCell>
        <mxCell id="SMOa5pvOTAPaj5bFfzsM-34" value="" style="shape=triangle;direction=south;fillColor=#ffffff;strokeColor=none;perimeter=none;labelBackgroundColor=#FF0080;fontColor=#FFFFFF;" vertex="1" parent="SMOa5pvOTAPaj5bFfzsM-33">
          <mxGeometry x="1" y="0.5" width="10" height="5" relative="1" as="geometry">
            <mxPoint x="-17" y="-2.5" as="offset" />
          </mxGeometry>
        </mxCell>
        <mxCell id="SMOa5pvOTAPaj5bFfzsM-35" value="" style="html=1;shadow=0;dashed=0;shape=mxgraph.bootstrap.rrect;rSize=5;fillColor=#FF3399;strokeColor=#999999;labelBackgroundColor=#FF0080;fontColor=#FFFFFF;" vertex="1" parent="SMOa5pvOTAPaj5bFfzsM-24">
          <mxGeometry x="65" y="93" width="170" height="110" as="geometry" />
        </mxCell>
        <mxCell id="SMOa5pvOTAPaj5bFfzsM-36" value="Action" style="fillColor=none;strokeColor=none;align=left;spacing=20;fontSize=14;labelBackgroundColor=#FF3399;fontColor=#FFFFFF;" vertex="1" parent="SMOa5pvOTAPaj5bFfzsM-35">
          <mxGeometry width="170" height="30" relative="1" as="geometry">
            <mxPoint y="10" as="offset" />
          </mxGeometry>
        </mxCell>
        <mxCell id="SMOa5pvOTAPaj5bFfzsM-37" value="Another action" style="fillColor=none;strokeColor=none;align=left;spacing=20;fontSize=14;labelBackgroundColor=#FF3399;fontColor=#FFFFFF;" vertex="1" parent="SMOa5pvOTAPaj5bFfzsM-35">
          <mxGeometry width="170" height="30" relative="1" as="geometry">
            <mxPoint y="40" as="offset" />
          </mxGeometry>
        </mxCell>
        <mxCell id="SMOa5pvOTAPaj5bFfzsM-38" value="Something else here" style="fillColor=none;strokeColor=none;align=left;spacing=20;fontSize=14;labelBackgroundColor=#FF3399;fontColor=#FFFFFF;" vertex="1" parent="SMOa5pvOTAPaj5bFfzsM-35">
          <mxGeometry width="170" height="30" relative="1" as="geometry">
            <mxPoint y="70" as="offset" />
          </mxGeometry>
        </mxCell>
      </root>
    </mxGraphModel>
  </diagram>
</mxfile>
